<svg width="48" height="48" viewBox="0 0 48 48" fill="none" xmlns="http://www.w3.org/2000/svg">
<path d="M4 33.172L11.172 26H30C31.0609 26 32.0783 25.5786 32.8284 24.8284C33.5786 24.0783 34 23.0609 34 22V12C34 10.9391 33.5786 9.92172 32.8284 9.17157C32.0783 8.42143 31.0609 8 30 8H8C6.93913 8 5.92172 8.42143 5.17157 9.17157C4.42143 9.92172 4 10.9391 4 12V33.172ZM4 36H2V12C2 10.4087 2.63214 8.88258 3.75736 7.75736C4.88258 6.63214 6.4087 6 8 6H30C31.5913 6 33.1174 6.63214 34.2426 7.75736C35.3679 8.88258 36 10.4087 36 12V22C36 23.5913 35.3679 25.1174 34.2426 26.2426C33.1174 27.3679 31.5913 28 30 28H12L4 36ZM42 41.172V20C42 18.9391 41.5786 17.9217 40.8284 17.1716C40.0783 16.4214 39.0609 16 38 16V14C39.5913 14 41.1174 14.6321 42.2426 15.7574C43.3679 16.8826 44 18.4087 44 20V44H42L34 36H16C14.823 36.0003 13.672 35.6544 12.6901 35.0054C11.7083 34.3564 10.939 33.4329 10.478 32.35L12.072 30.756C12.2477 31.6689 12.7359 32.4922 13.4528 33.0842C14.1696 33.6762 15.0703 34 16 34H34.828L42 41.172Z" fill="#829398"/>
</svg>
