<svg width="48" height="48" viewBox="0 0 48 48" fill="none" xmlns="http://www.w3.org/2000/svg">
<path d="M39.1761 30.984L35.5481 28.404C36.1574 26.1636 36.1539 23.8006 35.5381 21.562L39.1781 19.014L36.2721 13.986L32.2241 15.838C30.5879 14.19 28.5392 13.0117 26.2921 12.426L25.9061 8H20.0941L19.7081 12.426C17.4614 13.0125 15.4134 14.1915 13.7781 15.84L9.72806 13.988L6.82406 19.016L10.4641 21.564C9.8479 23.8018 9.84376 26.164 10.4521 28.404L6.82406 30.984L9.72806 35.988L13.7781 34.134C15.4136 35.7817 17.4616 36.9601 19.7081 37.546L20.0941 41.972H25.9061L26.2921 37.546C28.5385 36.96 30.5865 35.7816 32.2221 34.134L36.2721 35.988L39.1781 30.986L39.1761 30.984ZM27.0101 5.97C27.2675 5.96973 27.5151 6.06875 27.7014 6.24645C27.8877 6.42415 27.9982 6.66684 28.0101 6.924L28.3661 10.994C29.8445 11.5574 31.2238 12.3527 32.4521 13.35L36.1521 11.624C36.3806 11.5064 36.6456 11.4813 36.8921 11.554C37.1387 11.6266 37.3478 11.7913 37.4761 12.014L41.4861 18.954C41.6149 19.1765 41.6531 19.44 41.5928 19.6899C41.5325 19.9398 41.3782 20.1568 41.1621 20.296L37.8141 22.64C38.0701 24.236 38.0621 25.826 37.8161 27.358L41.1621 29.698C41.3787 29.8372 41.5334 30.0546 41.5937 30.305C41.6541 30.5554 41.6155 30.8194 41.4861 31.042L37.4761 37.956C37.3478 38.1787 37.1387 38.3434 36.8921 38.416C36.6456 38.4887 36.3806 38.4636 36.1521 38.346L32.4521 36.62C31.2481 37.6 29.8761 38.4 28.3661 38.978L28.0101 43.048C27.9977 43.3048 27.8869 43.547 27.7007 43.7243C27.5145 43.9016 27.2672 44.0003 27.0101 44H18.9901C18.733 44.0003 18.4856 43.9016 18.2994 43.7243C18.1132 43.547 18.0024 43.3048 17.9901 43.048L17.6341 38.978C16.1555 38.4139 14.7763 37.6179 13.5481 36.62L9.84806 38.346C9.61957 38.4644 9.35425 38.4901 9.10728 38.4178C8.86032 38.3455 8.65071 38.1809 8.52206 37.958L4.51406 31.04C4.38522 30.8175 4.34699 30.554 4.40733 30.3041C4.46766 30.0542 4.62191 29.8372 4.83806 29.698L8.18406 27.356C7.93349 25.7933 7.93349 24.2007 8.18406 22.638L4.84006 20.296C4.62444 20.1569 4.47056 19.9402 4.41025 19.6908C4.34994 19.4413 4.38782 19.1783 4.51606 18.956L8.52006 12.014C8.64838 11.7908 8.85784 11.6257 9.10484 11.553C9.35184 11.4804 9.61733 11.5058 9.84606 11.624L13.5461 13.35C14.7743 12.3527 16.1536 11.5574 17.6321 10.994L17.9881 6.924C17.9999 6.66684 18.1105 6.42415 18.2967 6.24645C18.483 6.06875 18.7306 5.96973 18.9881 5.97H27.0081H27.0101ZM23.0001 18C24.8566 18 26.6371 18.7375 27.9498 20.0503C29.2626 21.363 30.0001 23.1435 30.0001 25C30.0001 26.8565 29.2626 28.637 27.9498 29.9497C26.6371 31.2625 24.8566 32 23.0001 32C21.1435 32 19.3631 31.2625 18.0503 29.9497C16.7376 28.637 16.0001 26.8565 16.0001 25C16.0001 23.1435 16.7376 21.363 18.0503 20.0503C19.3631 18.7375 21.1435 18 23.0001 18ZM23.0001 20C21.674 20 20.4022 20.5268 19.4645 21.4645C18.5268 22.4021 18.0001 23.6739 18.0001 25C18.0001 26.3261 18.5268 27.5979 19.4645 28.5355C20.4022 29.4732 21.674 30 23.0001 30C24.3261 30 25.5979 29.4732 26.5356 28.5355C27.4733 27.5979 28.0001 26.3261 28.0001 25C28.0001 23.6739 27.4733 22.4021 26.5356 21.4645C25.5979 20.5268 24.3261 20 23.0001 20Z" fill="#0994BA"/>
</svg>
