<svg width="48" height="48" viewBox="0 0 48 48" fill="none" xmlns="http://www.w3.org/2000/svg">
<path d="M19 8C21.4871 7.99995 23.9221 8.71334 26.0159 10.0555C28.1098 11.3977 29.7746 13.3124 30.813 15.5724C31.8514 17.8323 32.2197 20.3427 31.8743 22.8057C31.5288 25.2687 30.4841 27.5809 28.864 29.468L40.152 40.756L38.738 42.17L27.448 30.88C25.8558 32.2416 23.958 33.1983 21.9164 33.6684C19.8747 34.1386 17.7497 34.1083 15.7223 33.5803C13.6949 33.0522 11.8251 32.0419 10.2722 30.6355C8.71939 29.2291 7.52945 27.4682 6.80377 25.5029C6.07809 23.5375 5.83818 21.4258 6.10445 19.3477C6.37073 17.2697 7.13531 15.2867 8.33308 13.5678C9.53084 11.8489 11.1263 10.4449 12.9836 9.47548C14.8409 8.50604 16.905 7.99984 19 8ZM19 10C16.0826 10 13.2848 11.1589 11.2219 13.2218C9.15895 15.2847 8.00003 18.0826 8.00003 21C8.00003 23.9174 9.15895 26.7153 11.2219 28.7782C13.2848 30.8411 16.0826 32 19 32C21.9174 32 24.7153 30.8411 26.7782 28.7782C28.8411 26.7153 30 23.9174 30 21C30 18.0826 28.8411 15.2847 26.7782 13.2218C24.7153 11.1589 21.9174 10 19 10Z" fill="#829398"/>
</svg>
